<svg aria-hidden="true" style="position:absolute;width:0;height:0" xmlns="http://www.w3.org/2000/svg" overflow="hidden"><defs><symbol id="icon-arrow-left" viewBox="0 0 32 32"><path d="M31 15.49H4.84l6.019-6.061L9.44 8 1 16.5 9.44 25l1.419-1.429L4.84 17.51H31v-2.021z"/></symbol><symbol id="icon-arrow-right" viewBox="0 0 32 32"><path d="M22.559 8L21.14 9.429l6.019 6.061H.999v2.021h26.159l-6.018 6.061 1.419 1.429 8.441-8.5-8.441-8.5z"/></symbol><symbol id="icon-big-arrow-left" viewBox="0 0 32 32"><path d="M31.083 15H5.005l6-6-1.414-1.414L1.177 16l8.414 8.414L11.005 23l-6-6h26.078v-2z"/></symbol><symbol id="icon-big-arrow-right" viewBox="0 0 32 32"><path d="M22.492 7.586L21.078 9l6 6H1v2h26.078l-6 6 1.414 1.414L30.906 16l-8.414-8.414z"/></symbol><symbol id="icon-little-arrow" viewBox="0 0 32 32"><path d="M22.492 7.586L21.078 9l6 6H1v2h26.077l-6 6 1.414 1.414L30.905 16l-8.414-8.414z"/></symbol></defs></svg>