<svg width="24" height="24" viewBox="0 0 24 24" fill="none" xmlns="http://www.w3.org/2000/svg">
<path d="M2.45407 7.93942C2.73536 7.65822 3.11683 7.50024 3.51457 7.50024C3.91232 7.50024 4.29378 7.65822 4.57507 7.93942L12.0001 15.3644L19.4251 7.93942C19.708 7.66619 20.0869 7.51499 20.4802 7.51841C20.8735 7.52183 21.2497 7.67958 21.5278 7.9577C21.8059 8.23581 21.9637 8.61203 21.9671 9.00532C21.9705 9.39862 21.8193 9.77752 21.5461 10.0604L13.0606 18.5459C12.7793 18.8271 12.3978 18.9851 12.0001 18.9851C11.6023 18.9851 11.2209 18.8271 10.9396 18.5459L2.45407 10.0604C2.17287 9.77913 2.01489 9.39767 2.01489 8.99992C2.01489 8.60218 2.17287 8.22072 2.45407 7.93942Z" fill="#C79002"/>
</svg>
